<svg width="66" height="65" viewBox="0 0 66 65" fill="none" xmlns="http://www.w3.org/2000/svg">
<g id="&#240;&#159;&#166;&#134; icon &#34;facebook icon&#34;">
<path id="Vector" d="M65.4026 32.7013C65.4026 14.6359 50.7545 0 32.7013 0C14.6359 0 0 14.6359 0 32.7013C0 49.0193 11.9544 62.5494 27.5917 65V42.1561H19.2876V32.7034H27.5917V25.4948C27.5917 17.301 32.4663 12.776 39.9385 12.776C43.5173 12.776 47.2636 13.4137 47.2636 13.4137V21.4602H43.133C39.0781 21.4602 37.8109 23.9844 37.8109 26.5698V32.7013H46.8794L45.4221 42.154H37.8109V64.998C53.436 62.5474 65.4026 49.0172 65.4026 32.6993V32.7013Z" fill="black"/>
</g>
</svg>
