<svg width="315" height="200" viewBox="0 0 315 200" fill="none" xmlns="http://www.w3.org/2000/svg">
<path d="M32.7143 57.7673V57.7672C32.6736 46.1133 36.1 35.5242 41.5782 27.8731C47.0593 20.2179 54.5296 15.5764 62.6046 15.5764C70.7692 15.5764 78.2174 20.1451 83.6626 27.727C89.1075 35.3083 92.4948 45.8435 92.4948 57.5563C92.4948 69.5398 89.0648 80.374 83.5939 88.186C78.1198 96.0026 70.6709 100.715 62.6046 100.715C54.5366 100.715 47.1082 96.0276 41.6451 88.2516C36.1848 80.4796 32.7548 69.6984 32.7143 57.7673ZM282.286 57.7672V57.7707C282.286 69.6994 278.856 80.4797 273.396 88.2516C267.932 96.0284 260.503 100.715 252.477 100.715C244.368 100.715 236.899 96.0009 231.415 88.1853C225.935 80.3736 222.505 69.5398 222.505 57.5563C222.505 45.8435 225.892 35.3087 231.347 27.7277C236.801 20.1467 244.27 15.5764 252.477 15.5764C260.51 15.5764 267.96 20.2163 273.432 27.8724C278.9 35.5238 282.326 46.1133 282.286 57.7672ZM192.085 48.9821C192.085 62.6247 188.142 75.012 181.828 83.9628C175.511 92.9174 166.888 98.357 157.501 98.357C148.153 98.357 139.55 92.9436 133.233 84.0282C126.919 75.1174 122.955 62.784 122.914 49.1953C122.914 35.7725 126.876 23.6844 133.195 14.9764C139.517 6.2661 148.14 1 157.501 1C166.949 1 175.571 6.19293 181.867 14.8309C188.164 23.4693 192.085 35.5025 192.085 48.9821ZM134.177 49.1958C134.177 58.8531 136.796 67.5457 140.996 73.8528C145.188 80.1481 151.042 84.1726 157.501 84.1726C164.044 84.1726 169.898 80.0904 174.069 73.7404C178.247 67.3797 180.823 58.6354 180.823 48.9821C180.823 39.4868 178.266 31.0819 174.088 25.022C169.91 18.9638 164.053 15.1844 157.501 15.1844C150.981 15.1844 145.125 19.0251 140.942 25.1317C136.755 31.2427 134.177 39.6994 134.177 49.1958ZM42.9881 57.7707C42.9881 65.6633 45.1767 72.8558 48.6973 78.103C52.2097 83.3379 57.1362 86.7452 62.6046 86.7452C68.1121 86.7452 73.06 83.3401 76.5845 78.0753C80.1163 72.7998 82.3037 65.5536 82.3037 57.5563C82.3037 49.8259 80.1773 42.8678 76.6677 37.8142C73.1589 32.7617 68.2083 29.5471 62.6046 29.5471C57.1117 29.5471 52.1841 32.8285 48.6732 37.9242C45.1575 43.027 42.9881 50.0361 42.9881 57.7707ZM232.697 57.5563C232.697 65.5535 234.884 72.8004 238.427 78.0764C241.963 83.343 246.931 86.7452 252.477 86.7452C257.947 86.7452 262.853 83.3364 266.345 78.1007C269.845 72.8531 272.013 65.6613 272.013 57.7707C272.013 50.0382 269.864 43.0297 266.369 37.9265C262.879 32.8299 257.971 29.5471 252.477 29.5471C246.835 29.5471 241.864 32.7589 238.343 37.8131C234.823 42.8672 232.697 49.826 232.697 57.5563ZM14.7448 185.138H73.9824C73.8165 190.492 75.881 195.691 78.8872 199H16.8041C11.3703 199 7.47647 197.573 4.92751 194.878C2.36861 192.173 1 188.017 1 182.208C1 146.965 28.6586 114.933 62.5219 114.933C75.5064 114.933 87.7223 119.312 97.9941 127.793C94.8577 130.748 92.2558 134.021 89.9289 137.67C81.9625 131.854 72.7439 128.797 62.5219 128.797C34.9988 128.797 11.2737 154.145 11.2737 181.244C11.2737 182.367 11.496 183.381 12.14 184.114C12.8094 184.876 13.7547 185.138 14.7448 185.138ZM314 182.208C314 188.017 312.632 192.174 310.082 194.88C307.542 197.574 303.669 199 298.278 199H236.19C239.184 195.686 241.202 190.484 241.088 185.138H300.338C301.328 185.138 302.266 184.875 302.917 184.095C303.533 183.358 303.727 182.347 303.727 181.244C303.727 154.145 280.001 128.797 252.477 128.797C242.341 128.797 233.048 131.851 225.15 137.666C222.811 134.015 220.15 130.744 217.01 127.796C227.355 119.311 239.496 114.933 252.477 114.933C286.341 114.933 314 146.965 314 182.208ZM209.232 199H105.769C98.9895 199 94.2053 197.674 91.1214 195.081C88.0747 192.52 86.5045 188.563 86.5045 182.852C86.5045 169.099 93.1999 152.154 105.469 138.641C117.719 125.15 135.461 115.148 157.501 115.148C179.497 115.148 197.219 125.149 209.458 138.641C221.718 152.154 228.413 169.099 228.413 182.852C228.413 188.564 226.843 192.521 223.805 195.082C220.732 197.675 215.968 199 209.232 199ZM97.7671 180.815C97.7671 182.037 98.0066 183.132 98.7995 183.885C99.5801 184.626 100.672 184.816 101.815 184.816H213.185C214.325 184.816 215.41 184.627 216.174 183.87C216.94 183.112 217.15 182.016 217.15 180.815C217.15 171.702 211.768 158.846 201.696 148.291C191.591 137.701 176.677 129.332 157.501 129.332C138.282 129.332 123.348 137.701 113.232 148.291C103.149 158.846 97.7671 171.702 97.7671 180.815Z" fill="black" stroke="white" stroke-width="2"/>
</svg>
