<svg xmlns="http://www.w3.org/2000/svg" width="212" height="210" viewBox="0 0 212 210" fill="none">
    <path
        d="M199.177 170.957L182.551 174.887C178.823 175.794 175.901 178.615 175.095 182.344L171.568 197.156C169.653 205.217 159.376 207.635 154.035 201.287L105.971 146.069L57.9066 201.388C52.5662 207.736 42.2883 205.318 40.3738 197.256L36.8471 182.444C35.9402 178.716 33.0181 175.794 29.3906 174.988L12.7647 171.058C5.10667 169.244 2.38607 159.672 7.92804 154.13L47.2257 114.832C58.1081 130.954 75.3386 142.341 95.3909 145.263C98.8169 145.867 102.344 146.17 105.971 146.17C109.599 146.17 113.125 145.867 116.551 145.263C136.603 142.341 153.834 130.954 164.716 114.832L204.014 154.13C209.556 159.571 206.835 169.144 199.177 170.957Z"
        stroke="black" stroke-width="9.04528" stroke-linecap="round" stroke-linejoin="round" />
    <path
        d="M111.815 45.1036L117.76 56.9936C118.566 58.6058 120.683 60.2181 122.597 60.5204L133.379 62.334C140.231 63.4424 141.843 68.4807 136.905 73.4181L128.542 81.7812C127.131 83.1919 126.325 85.9127 126.829 87.928L129.247 98.3066C131.162 106.468 126.829 109.693 119.574 105.36L109.498 99.415C107.684 98.3066 104.661 98.3066 102.847 99.415L92.7711 105.36C85.5158 109.592 81.183 106.468 83.0975 98.3066L85.5158 87.928C85.9192 86.0135 85.2135 83.1919 83.8029 81.7812L75.4395 73.4181C70.5021 68.4807 72.1143 63.5432 78.9662 62.334L89.7482 60.5204C91.5619 60.2181 93.678 58.6058 94.4841 56.9936L100.429 45.1036C103.351 38.6548 108.591 38.6548 111.815 45.1036Z"
        stroke="#2669F6" stroke-width="9.04528" stroke-linecap="round" stroke-linejoin="round" />
    <path
        d="M176.505 75.5343C176.505 90.1449 172.173 103.546 164.716 114.731C153.834 130.853 136.603 142.24 116.551 145.162C113.125 145.766 109.599 146.069 105.971 146.069C102.344 146.069 98.817 145.766 95.391 145.162C75.3391 142.24 58.1086 130.853 47.2262 114.731C39.7697 103.546 35.4369 90.1449 35.4369 75.5343C35.4369 36.5389 66.9758 5 105.971 5C144.967 5 176.505 36.5389 176.505 75.5343Z"
        stroke="#292D32" stroke-width="9.04528" stroke-linecap="round" stroke-linejoin="round" />
</svg>