<svg width="200" height="200" viewBox="0 0 200 200" fill="none" xmlns="http://www.w3.org/2000/svg">
<g id="&#240;&#159;&#166;&#134; icon &#34;target arrow&#34;">
<path id="Vector" d="M100 108.333C104.602 108.333 108.333 104.602 108.333 100C108.333 95.3976 104.602 91.6666 100 91.6666C95.3976 91.6666 91.6666 95.3976 91.6666 100C91.6666 104.602 95.3976 108.333 100 108.333Z" stroke="#2669F6" stroke-width="11.8708" stroke-linecap="round" stroke-linejoin="round"/>
<path id="Vector_2" d="M99.9999 58.3333C91.7591 58.3333 83.7032 60.777 76.8512 65.3554C69.9991 69.9337 64.6586 76.4412 61.505 84.0548C58.3513 91.6684 57.5262 100.046 59.1339 108.129C60.7416 116.211 64.71 123.636 70.5372 129.463C76.3643 135.29 83.7886 139.258 91.8712 140.866C99.9537 142.474 108.331 141.649 115.945 138.495C123.559 135.341 130.066 130.001 134.645 123.149C139.223 116.297 141.667 108.241 141.667 99.9999" stroke="black" stroke-width="11.8708" stroke-linecap="round" stroke-linejoin="round"/>
<path id="Vector_3" d="M108.367 25.4584C92.9174 23.7251 77.3111 26.8357 63.7068 34.3598C50.1025 41.8839 39.1725 53.4496 32.4288 67.4572C25.6851 81.4647 23.4609 97.2218 26.064 112.549C28.6671 127.876 35.9687 142.015 46.9588 153.01C57.949 164.006 72.0845 171.315 87.4101 173.926C102.736 176.536 118.494 174.32 132.505 167.584C146.516 160.847 158.087 149.923 165.618 136.322C173.149 122.722 176.267 107.117 174.542 91.6667" stroke="black" stroke-width="11.8708" stroke-linecap="round" stroke-linejoin="round"/>
<path id="Vector_4" d="M125 50V75H150L175 50H150V25L125 50Z" fill="#2669F6" stroke="black" stroke-width="11.8708" stroke-linecap="round" stroke-linejoin="round"/>
<path id="Vector_5" d="M125 75L100 100" stroke="black" stroke-width="11.8708" stroke-linecap="round" stroke-linejoin="round"/>
</g>
</svg>
