<svg width="214" height="200" viewBox="0 0 214 200" fill="none" xmlns="http://www.w3.org/2000/svg">
<path d="M27.7501 6.66667V13.3333H7.39893C3.71823 13.3333 0.734375 16.3181 0.734375 20V193.333C0.734375 197.015 3.71823 200 7.39893 200H207.335C211.016 200 214 197.015 214 193.333V20C214 16.3181 211.016 13.3333 207.335 13.3333H186.985V6.66667C186.985 2.9848 184 0 180.32 0H139.958C127.395 0 115.626 5.39893 107.367 14.536C99.1078 5.39893 87.339 0 74.7769 0H34.4146C30.7339 0 27.7501 2.9848 27.7501 6.66667ZM173.655 19.5221C173.643 19.68 173.638 19.8393 173.638 20C173.638 20.1607 173.643 20.32 173.655 20.4779V159.216H142.292C131.834 159.216 121.937 162.829 114.032 169.127V27.7185C119.714 18.7556 129.477 13.3333 139.958 13.3333H173.655V19.5221ZM186.985 26.6667H200.671V186.667H115.725C121.743 177.877 131.643 172.549 142.292 172.549H180.32C184 172.549 186.985 169.564 186.985 165.883V26.6667ZM72.4419 172.549C83.0908 172.549 92.9911 177.877 99.0093 186.667H14.0635V26.6667H27.7501V165.883C27.7501 169.564 30.7339 172.549 34.4146 172.549H72.4419ZM41.0792 159.216V20.4777C41.0904 20.32 41.0961 20.1607 41.0961 20C41.0961 19.8393 41.0904 19.68 41.0792 19.5223V13.3333H74.7769C85.2567 13.3333 95.021 18.7556 100.703 27.7185V169.127C92.7969 162.829 82.9004 159.216 72.4419 159.216H41.0792Z" fill="black"/>
</svg>
