<svg width="200" height="200" viewBox="0 0 200 200" fill="none" xmlns="http://www.w3.org/2000/svg">
<rect width="200" height="200" fill="#FFF5F5"/>
<g clip-path="url(#clip0_0_1)">
<rect width="1512" height="2989" transform="translate(-1063 -302)" fill="white"/>
<path d="M99.9999 0C73.7393 0.0140038 48.5359 10.3466 29.8227 28.7704V0H16.4755V53.3889H69.8644V40.0417H37.4502C45.5409 31.6087 55.2518 24.8972 66.0004 20.31C76.7489 15.7229 88.3135 13.3545 99.9999 13.3472C147.779 13.3472 186.653 52.221 186.653 99.9999C186.653 147.779 147.779 186.653 99.9999 186.653C52.221 186.653 13.3472 147.779 13.3472 99.9999H0C-2.46181e-05 119.778 5.86485 139.112 16.853 155.557C27.8411 172.002 43.459 184.819 61.7316 192.388C80.0042 199.957 100.111 201.937 119.509 198.078C138.907 194.22 156.725 184.696 170.711 170.711C184.696 156.725 194.22 138.907 198.078 119.509C201.937 100.111 199.957 80.0042 192.388 61.7316C184.819 43.459 172.002 27.8411 155.557 16.853C139.112 5.86485 119.778 -2.46181e-05 99.9999 0Z" fill="black"/>
<path d="M93.2219 40.0212L92.9988 113.451H146.611V100.104H106.387L106.569 40.0621L93.2219 40.0212Z" fill="#2669F6"/>
</g>
<defs>
<clipPath id="clip0_0_1">
<rect width="1512" height="2989" fill="white" transform="translate(-1063 -302)"/>
</clipPath>
</defs>
</svg>
