<svg width="202" height="212" viewBox="0 0 202 212" fill="none" xmlns="http://www.w3.org/2000/svg">
<g id="&#240;&#159;&#166;&#134; icon &#34;light bulb on&#34;">
<path id="Vector" d="M195.474 6L184.947 16.5263" stroke="black" stroke-width="11.8708" stroke-linecap="round" stroke-linejoin="round"/>
<path id="Vector_2" d="M6 6L16.5263 16.5263" stroke="black" stroke-width="11.8708" stroke-linecap="round" stroke-linejoin="round"/>
<path id="Vector_3" d="M195.474 153.368L184.947 142.842" stroke="black" stroke-width="11.8708" stroke-linecap="round" stroke-linejoin="round"/>
<path id="Vector_4" d="M6 153.368L16.5263 142.842" stroke="black" stroke-width="11.8708" stroke-linecap="round" stroke-linejoin="round"/>
<path id="Vector_5" d="M69.1579 174.421H132.316" stroke="black" stroke-width="11.8708" stroke-linecap="round" stroke-linejoin="round"/>
<path id="Vector_6" d="M79.6843 206H121.79" stroke="#2669F6" stroke-width="11.8708" stroke-linecap="round" stroke-linejoin="round"/>
<path id="Vector_7" d="M100.735 16.5264C58.6283 16.5264 37.0721 37.0557 37.5773 69.158C37.8235 84.8094 42.8389 95.4737 53.3668 106C63.8947 116.526 69.1578 121.79 69.1562 142.842H132.314C132.316 121.791 137.579 116.526 148.102 106.001C158.627 95.4748 163.647 84.8094 163.893 69.158C164.398 37.0557 142.842 16.5264 100.735 16.5264Z" stroke="black" stroke-width="11.8708" stroke-linecap="round" stroke-linejoin="round"/>
</g>
</svg>
