<svg width="50" height="66" viewBox="0 0 50 66" fill="none" xmlns="http://www.w3.org/2000/svg">
<g id="&#240;&#159;&#166;&#134; icon &#34;Alternate Map Marker&#34;">
<path id="Vector" d="M22.4307 64.4824C3.51172 37.4078 0 34.6291 0 24.6788C0 11.049 11.1928 0 25 0C38.8072 0 50 11.049 50 24.6788C50 34.6291 46.4883 37.4078 27.5693 64.4824C26.3277 66.2528 23.6721 66.2527 22.4307 64.4824ZM25 34.9617C30.753 34.9617 35.4167 30.3579 35.4167 24.6788C35.4167 18.9997 30.753 14.396 25 14.396C19.247 14.396 14.5833 18.9997 14.5833 24.6788C14.5833 30.3579 19.247 34.9617 25 34.9617Z" fill="black"/>
</g>
</svg>
