<svg width="70" height="53" viewBox="0 0 70 53" fill="none" xmlns="http://www.w3.org/2000/svg">
<g id="&#240;&#159;&#166;&#134; icon &#34;Envelope&#34;">
<path id="Vector" d="M68.6738 17.3359C69.207 16.9121 70 17.3086 70 17.9785V45.9375C70 49.5605 67.0605 52.5 63.4375 52.5H6.5625C2.93945 52.5 0 49.5605 0 45.9375V17.9922C0 17.3086 0.779297 16.9258 1.32617 17.3496C4.38867 19.7285 8.44922 22.75 22.3945 32.8809C25.2793 34.9863 30.1465 39.416 35 39.3887C39.8809 39.4297 44.8438 34.9043 47.6191 32.8809C61.5645 22.75 65.6113 19.7148 68.6738 17.3359ZM35 35C38.1719 35.0547 42.7383 31.0078 45.0352 29.3398C63.1777 16.1738 64.5586 15.0254 68.7422 11.7441C69.5352 11.1289 70 10.1719 70 9.16016V6.5625C70 2.93945 67.0605 0 63.4375 0H6.5625C2.93945 0 0 2.93945 0 6.5625V9.16016C0 10.1719 0.464844 11.1152 1.25781 11.7441C5.44141 15.0117 6.82227 16.1738 24.9648 29.3398C27.2617 31.0078 31.8281 35.0547 35 35Z" fill="black"/>
</g>
</svg>
