<svg width="65" height="65" viewBox="0 0 65 65" fill="none" xmlns="http://www.w3.org/2000/svg">
<g id="&#240;&#159;&#166;&#134; icon &#34;phone&#34;">
<path id="Vector" d="M47.125 59.5837C36.0677 59.5694 25.4673 55.1705 17.6486 47.3518C9.82988 39.5331 5.43102 28.9327 5.41669 17.8754C5.41669 14.5712 6.72926 11.4024 9.06565 9.06602C11.402 6.72963 14.5709 5.41706 17.875 5.41706C18.5747 5.41173 19.2732 5.47523 19.9604 5.60664C20.6248 5.70495 21.278 5.86824 21.9104 6.09414C22.3553 6.25022 22.7517 6.51971 23.0604 6.87596C23.3692 7.23221 23.5796 7.66289 23.6709 8.12539L27.3813 24.3754C27.4813 24.8165 27.4692 25.2756 27.3462 25.7108C27.2232 26.1461 26.9932 26.5436 26.6771 26.8671C26.325 27.2462 26.2979 27.2733 22.9667 29.0066C25.6344 34.859 30.3149 39.5587 36.1563 42.2504C37.9167 38.8921 37.9438 38.865 38.3229 38.5129C38.6464 38.1968 39.0439 37.9668 39.4792 37.8438C39.9144 37.7208 40.3735 37.7087 40.8146 37.8087L57.0646 41.5191C57.5123 41.623 57.9262 41.8391 58.2673 42.1471C58.6085 42.4551 58.8656 42.8448 59.0146 43.2796C59.2432 43.9224 59.4154 44.5839 59.5292 45.2566C59.6382 45.9373 59.6925 46.6256 59.6917 47.315C59.6417 50.605 58.2923 53.7417 55.9379 56.0403C53.5835 58.3389 50.4153 59.6127 47.125 59.5837Z" fill="#231F20"/>
</g>
</svg>
